<svg xmlns="http://www.w3.org/2000/svg" viewBox="0 0 232.15 408.08"><defs><style>.cls-1{fill:#fff;}</style></defs><title>fb line icon</title><g id="Layer_2" data-name="Layer 2"><g id="Layer_1-2" data-name="Layer 1"><path class="cls-1" d="M218.54,0c10.12,4.72,13.86,12.8,13.6,23.76C231.73,40.88,232,58,232,75.15c0,14.63-8,22.53-22.72,22.61-11.68.06-23.37,0-35.05.26-9.07.19-10.65,1.73-10.89,10.83-.26,9.39-.06,18.8-.06,28.61,1.57.07,3,.19,4.38.19,13.28,0,26.56,0,39.83,0,14.19.07,22.14,8.08,22.16,22.29q0,29.28,0,58.56c0,13.87-8.17,22-22.06,22.06-14.6,0-29.19,0-44.5,0v5.16c0,46.47.09,92.95-.14,139.42a30.83,30.83,0,0,1-3.26,13.62c-3.19,6.16-9.21,9.14-16.18,9.17-22,.13-44.08.2-66.12,0-10.59-.11-18.37-8-19.23-18.57-.15-1.85-.16-3.71-.16-5.57Q58,314.89,58,246v-5.39c-11.9,0-23.31,0-34.71,0a41.37,41.37,0,0,1-7.13-.51c-9.07-1.63-15.88-9-16-18.24q-.34-32.66,0-65.32a18.82,18.82,0,0,1,18.56-18.66c11.28-.34,22.57-.14,33.85-.17h5.18c.09-1.66.22-3.07.23-4.48.13-12-.19-23.92.43-35.84C59.69,72.67,67.23,50.25,84,31.53c15.59-17.47,35.44-27,58.28-30.74,1-.17,2-.52,3-.79ZM24.12,216.63h4.75c13.28,0,26.56-.07,39.84.06,7.24.08,12.2,4.75,13.07,11.92a44.34,44.34,0,0,1,.2,5.16q0,72.53,0,145v5h57.09v-5.49q0-72.9,0-145.81c0-11,4.89-15.82,15.8-15.83q23.1,0,46.21,0h4.3v-55h-4.69c-15.54,0-31.07,0-46.61,0-8.95,0-14.71-4.75-14.85-13.17-.23-14.86-.21-29.76.51-44.6.6-12.44,6.37-22.2,18.57-26.76a47.72,47.72,0,0,1,14.33-2.91c10.33-.51,20.7-.31,31.06-.42,1.39,0,2.79-.16,4.05-.23V22.74c-19.94.44-39.6.23-59.17,1.53a67.91,67.91,0,0,0-40.75,17.2C90.7,56.49,83.44,76.2,82.38,98.31c-.75,15.77-.3,31.6-.39,47.4-.06,10.77-5.14,15.89-15.85,15.91-12.62,0-25.23,0-37.85,0-1.39,0-2.78.12-4.17.18Z"/></g></g></svg>