<svg xmlns="http://www.w3.org/2000/svg" viewBox="0 0 1102.95 346.03"><defs><style>.cls-1{fill:#fff;}.cls-2{fill:red;}</style></defs><title>Asset 1</title><g id="Layer_2" data-name="Layer 2"><g id="Layer_1-2" data-name="Layer 1"><path class="cls-1" d="M0,4.81H79.78c54.79,0,78.33,25.47,78.33,77.37V95.64c0,34.6-10.57,56.23-34.12,65.84v1c28.36,9.61,39.41,34.6,39.41,70.17v28.83c0,51.91-27.39,79.78-80.26,79.78H0Zm73.53,137c19.7,0,31.72-8.65,31.72-35.56V87.47c0-24-8.17-34.6-26.91-34.6H52.87v88.9Zm9.61,151.39c17.78,0,27.4-8.17,27.4-33.16V230.68c0-31.23-10.1-40.85-34.13-40.85H52.87V293.16Z"/><path class="cls-1" d="M192.23,261.44V4.81H245.1V265.29c0,24,10.09,32.68,26.91,32.68s26.91-8.65,26.91-32.68V4.81h50.95V261.44c0,53.83-26.92,84.59-78.82,84.59S192.23,315.27,192.23,261.44Z"/><path class="cls-1" d="M387.35,4.81h78.34C520.47,4.81,544,30.28,544,82.18v20.67c0,34.6-11,56.71-34.6,66.32v1c26.43,8.17,35.08,33.16,35.08,71.13v59.11c0,16.34.48,28.35,5.77,40.85H496.44c-2.88-8.65-4.8-13.94-4.8-41.33V238.37c0-31.24-9.13-41.33-33.16-41.33H440.22V341.22H387.35ZM459.44,149c19.7,0,31.72-8.65,31.72-35.56V87.47c0-24-8.17-34.6-26.92-34.6h-24V149Z"/><path class="cls-1" d="M744,4.81V341.22H691.08V197.05H672.82c-24,0-33.16,10.09-33.16,41.33v61.51c0,27.39-1.92,32.68-4.81,41.33H581c5.29-12.49,5.77-24.51,5.77-40.85V241.26c0-38,8.65-63,35.08-71.13v-1c-23.55-9.61-34.6-31.72-34.6-66.32V82.18c0-51.9,23.55-77.37,78.33-77.37Z"/><path class="cls-1" d="M765.58,261.44V242.22h50v23.07c0,24,10.57,32.68,27.39,32.68s27.4-8.65,27.4-33.64c0-27.88-10.58-45.66-45.18-75.94C781,149.46,766.54,122.07,766.54,83.62,766.54,30.76,793.93,0,845.35,0s76.9,30.76,76.9,84.58V98.52h-50V81.22c0-24-9.61-33.16-26.43-33.16s-26.44,9.13-26.44,32.2c0,24.51,11.06,42.29,45.66,72.57,44.21,38.93,58.15,65.84,58.15,107.65,0,54.79-27.87,85.55-79.78,85.55S765.58,315.27,765.58,261.44Z"/><path class="cls-1" d="M994.82,52.87H939.55V4.81H1103V52.87h-55.27V341.22H994.82Z"/><path class="cls-2" d="M658.33,148.93c.54-10.77,1.08-21.55,1.63-32.48L643,120.51l9.16-20.62-11.49-6L648,90.25,622.21,63.9l.07-.16L661.53,75l1.75-13.33,6.8,7.16,17.78-36.18.15,0c.35,14.55.69,29.1,1,43.78l11.47-1.85-4.57,9.15,33,7.87,0,.19L698.72,102.7,722.31,126l-.11.16L690,114.61c-.46,5.81-.91,11.5-1.38,17.42l-14.14-12.68-16,29.63Z"/></g></g></svg>